<svg width="278" height="177" viewBox="0 0 278 177" fill="none" xmlns="http://www.w3.org/2000/svg">
<g filter="url(#filter0_d_1_19)">
<path d="M98 20C98 8.9543 106.954 0 118 0H158C169.046 0 178 8.95431 178 20V58C178 69.0457 169.046 78 158 78H118C106.954 78 98 69.0457 98 58V20Z" fill="white"/>
<path d="M118 1H158C168.493 1 177 9.50659 177 20V58C177 68.4934 168.493 77 158 77H118C107.507 77 99 68.4934 99 58V20C99 9.50659 107.507 1 118 1Z" stroke="black" stroke-width="2"/>
</g>
<rect x="1" y="100" width="78" height="76" rx="19" fill="white" stroke="black" stroke-width="2"/>
<path d="M53.8068 169H49.5455L56.7614 154.455H62.1591L64.5455 169H60.2841L58.8636 158.46H58.75L53.8068 169ZM53.9773 163.261H61.9886L61.4773 166.216H53.4659L53.9773 163.261Z" fill="#060606"/>
<rect x="199" y="100" width="78" height="76" rx="19" fill="white" stroke="black" stroke-width="2"/>
<path d="M258.71 169H253.028L255.443 154.455H260.898C262.394 154.455 263.644 154.755 264.648 155.357C265.652 155.958 266.364 156.817 266.786 157.935C267.207 159.052 267.29 160.383 267.034 161.926C266.788 163.413 266.288 164.684 265.536 165.74C264.787 166.796 263.831 167.603 262.666 168.162C261.506 168.721 260.188 169 258.71 169ZM257.531 165.648H258.966C259.686 165.648 260.327 165.522 260.891 165.271C261.459 165.016 261.932 164.589 262.311 163.993C262.695 163.392 262.972 162.57 263.142 161.528C263.303 160.544 263.298 159.784 263.128 159.249C262.957 158.709 262.633 158.335 262.155 158.126C261.677 157.913 261.059 157.807 260.301 157.807H258.838L257.531 165.648Z" fill="#060606"/>
<rect x="100" y="100" width="78" height="76" rx="19" fill="white" stroke="black" stroke-width="2"/>
<path d="M163.517 159C163.56 158.531 163.446 158.164 163.176 157.899C162.906 157.629 162.452 157.494 161.812 157.494C161.405 157.494 161.064 157.542 160.79 157.636C160.52 157.731 160.309 157.861 160.158 158.027C160.011 158.193 159.919 158.384 159.881 158.602C159.838 158.773 159.84 158.929 159.888 159.071C159.94 159.208 160.037 159.334 160.179 159.447C160.326 159.561 160.518 159.663 160.754 159.753C160.996 159.843 161.282 159.923 161.614 159.994L162.75 160.25C163.527 160.42 164.178 160.645 164.703 160.925C165.233 161.199 165.65 161.526 165.953 161.905C166.256 162.284 166.455 162.707 166.55 163.176C166.649 163.645 166.652 164.156 166.557 164.71C166.396 165.667 166.024 166.476 165.442 167.139C164.859 167.802 164.099 168.306 163.162 168.652C162.224 168.998 161.14 169.17 159.909 169.17C158.65 169.17 157.58 168.983 156.699 168.609C155.823 168.231 155.188 167.653 154.795 166.876C154.407 166.095 154.313 165.098 154.511 163.886H158.261C158.205 164.331 158.252 164.705 158.403 165.009C158.555 165.312 158.799 165.541 159.135 165.697C159.471 165.854 159.89 165.932 160.392 165.932C160.818 165.932 161.183 165.88 161.486 165.776C161.789 165.671 162.028 165.527 162.203 165.342C162.378 165.158 162.485 164.947 162.523 164.71C162.561 164.492 162.523 164.298 162.409 164.128C162.295 163.957 162.089 163.804 161.791 163.666C161.493 163.529 161.083 163.403 160.562 163.29L159.17 162.977C157.935 162.693 157.002 162.224 156.372 161.571C155.742 160.918 155.52 160.023 155.705 158.886C155.856 157.958 156.237 157.149 156.848 156.457C157.464 155.761 158.245 155.222 159.192 154.838C160.143 154.45 161.197 154.256 162.352 154.256C163.527 154.256 164.509 154.452 165.3 154.845C166.095 155.238 166.666 155.79 167.011 156.5C167.362 157.21 167.456 158.044 167.295 159H163.517Z" fill="#060606"/>
<path d="M149.722 69L147.847 54.4545H152.25L152.761 63.4034H152.875L156.71 54.4545H160.176L161.057 63.4318H161.17L164.636 54.4545H169.04L162.335 69H158.557L157.449 60.875H157.335L153.5 69H149.722Z" fill="#060606"/>
<defs>
<filter id="filter0_d_1_19" x="94" y="0" width="88" height="86" filterUnits="userSpaceOnUse" color-interpolation-filters="sRGB">
<feFlood flood-opacity="0" result="BackgroundImageFix"/>
<feColorMatrix in="SourceAlpha" type="matrix" values="0 0 0 0 0 0 0 0 0 0 0 0 0 0 0 0 0 0 127 0" result="hardAlpha"/>
<feOffset dy="4"/>
<feGaussianBlur stdDeviation="2"/>
<feComposite in2="hardAlpha" operator="out"/>
<feColorMatrix type="matrix" values="0 0 0 0 0 0 0 0 0 0 0 0 0 0 0 0 0 0 0.25 0"/>
<feBlend mode="normal" in2="BackgroundImageFix" result="effect1_dropShadow_1_19"/>
<feBlend mode="normal" in="SourceGraphic" in2="effect1_dropShadow_1_19" result="shape"/>
</filter>
</defs>
</svg>
